<svg xmlns="http://www.w3.org/2000/svg" xmlns:xlink="http://www.w3.org/1999/xlink" width="62" height="62" viewBox="0 0 62 62">
  <defs>
    <radialGradient id="radial-gradient" cx="0.5" cy="0.5" r="0.5" gradientUnits="objectBoundingBox">
      <stop offset="0" stop-color="#fbfbfb"/>
      <stop offset="1" stop-color="#dfdfdf"/>
    </radialGradient>
    <clipPath id="clip-path">
      <rect id="Rectangle_3380" data-name="Rectangle 3380" width="32.259" height="18.01" fill="#3a4750"/>
    </clipPath>
  </defs>
  <g id="Group_91503" data-name="Group 91503" transform="translate(-139 -3622)">
    <g id="Ellipse_208" data-name="Ellipse 208" transform="translate(139 3622)" stroke="rgba(26,29,32,0.07)" stroke-width="1.5" fill="url(#radial-gradient)">
      <circle cx="31" cy="31" r="31" stroke="none"/>
      <circle cx="31" cy="31" r="30.25" fill="none"/>
    </g>
    <g id="Group_8791" data-name="Group 8791" transform="translate(153.484 3643.426)">
      <g id="Group_8790" data-name="Group 8790" clip-path="url(#clip-path)">
        <path id="Path_422" data-name="Path 422" d="M32.259,12.082V13.34a.592.592,0,0,0-.06.138,5.3,5.3,0,1,1-10.406-1.989c.048-.2.1-.392.159-.645-.1.063-.143.088-.184.117A2.57,2.57,0,0,0,20.752,13.4c.057.755.215,1.5.333,2.285a1.12,1.12,0,0,1-.207.045c-.554.041-1.109.1-1.664.109q-3.779.046-7.559.057a.907.907,0,0,1-.479-.172c-.352-.242-.683-.512-1.049-.791l-.255.462a5.379,5.379,0,0,1-5.686,2.5A5.3,5.3,0,0,1,6.1,7.469a5.3,5.3,0,0,1,4.166,3.344c.035.082.154.193.22.184.285-.04.566-.119.921-.2a4.546,4.546,0,0,0-.248-.72c-.327-.6-.676-1.182-1.03-1.763a.8.8,0,0,0-.307-.292c-.863-.428-1.733-.843-2.6-1.257a1.593,1.593,0,0,0-.329-.086,7.211,7.211,0,0,1-1.242-.293,9.838,9.838,0,0,1-3.14-2.373.71.71,0,0,0-.541-.248,2.878,2.878,0,0,1-.8-.133C.933,3.554.919,3.36,1.118,3.2a2.615,2.615,0,0,1,.348-.2l-.253-.33c.9,0,1.773-.028,2.641.01a9.954,9.954,0,0,1,1.709.232,1.548,1.548,0,0,1,.841.427,5.111,5.111,0,0,0,4.676,1.991,1.633,1.633,0,0,0,.774-.268c.409-.289.75-.671,1.155-.967a6.252,6.252,0,0,1,5.951-.964c.467.154.911.373,1.31.539.054-.148.065-.362.162-.413.465-.245.953-.446,1.447-.67l1,2.286c.119.271.543.434.725.221a1.668,1.668,0,0,1,.787-.4c.4-.163.48-.476.173-.785a2.3,2.3,0,0,0-.679-.5q-1.436-.629-2.9-1.2a.783.783,0,0,1-.313-1.3,1.726,1.726,0,0,1,.448-.278A2.146,2.146,0,0,1,23.46.8a4.125,4.125,0,0,0,.395.227L24.346,0a1.382,1.382,0,0,1,.625,1.412.7.7,0,0,0,.193.75,1.613,1.613,0,0,1,.2.244c.819,1.076,1.646,2.145,2.451,3.231.259.35.172.6-.217.811-.159.085-.328.15-.574.261L27.453,7l-.573.391c.17.017.258.029.347.035A5.118,5.118,0,0,1,31.7,10.369a11.43,11.43,0,0,1,.563,1.713m-8.972.621a3.669,3.669,0,1,0,3.688-3.654A3.652,3.652,0,0,0,23.287,12.7M8.7,11.379a3.662,3.662,0,1,0-3.446,4.989,3.608,3.608,0,0,0,3.614-2.948c-.107.006-.208.013-.31.018-1.069.048-2.137.1-3.206.139-.094,0-.263-.051-.276-.107-.095-.414-.159-.834-.235-1.267L8.7,11.379M12.041,14.1c-.12-.252-.2-.453-.31-.638a.321.321,0,0,0-.22-.15c-.3,0-.6.023-.925.039l-.139.749Z" transform="translate(0)" fill="#3a4750"/>
      </g>
    </g>
  </g>
</svg>
