<svg width="20" height="20" viewBox="0 0 20 20" fill="none" xmlns="http://www.w3.org/2000/svg">
<g opacity="1">
<path d="M14.34 0.5C15.9135 0.5 17.1928 1.04954 18.0797 1.9779C18.9686 2.90829 19.5 4.25778 19.5 5.92V14.091C19.5 15.7473 18.9689 17.0941 18.08 18.0232C17.1929 18.9504 15.9135 19.5 14.34 19.5H5.67C4.09637 19.5 2.81424 18.9504 1.92461 18.0228C1.03322 17.0934 0.5 15.7467 0.5 14.091V5.92C0.5 4.25838 1.03347 2.90897 1.92483 1.97836C2.81441 1.04962 4.09639 0.5 5.67 0.5H14.34Z" stroke="#C9A58B"/>
<path style="fill: #3EB3E5;" d="M14.34 0C17.73 0 20 2.38 20 5.92V14.091C20 17.62 17.73 20 14.34 20H5.67C2.28 20 0 17.62 0 14.091V5.92C0 2.38 2.28 0 5.67 0H14.34ZM14.18 7C13.84 6.66 13.28 6.66 12.94 7L8.81 11.13L7.06 9.38C6.72 9.04 6.16 9.04 5.82 9.38C5.48 9.72 5.48 10.27 5.82 10.62L8.2 12.99C8.37 13.16 8.59 13.24 8.81 13.24C9.04 13.24 9.26 13.16 9.43 12.99L14.18 8.24C14.52 7.9 14.52 7.35 14.18 7Z" fill="#74819D"/>
</g>
</svg>
