<svg xmlns="http://www.w3.org/2000/svg" xmlns:xlink="http://www.w3.org/1999/xlink" width="62" height="62" viewBox="0 0 62 62">
  <defs>
    <radialGradient id="radial-gradient" cx="0.5" cy="0.5" r="0.5" gradientUnits="objectBoundingBox">
      <stop offset="0" stop-color="#fbfbfb"/>
      <stop offset="1" stop-color="#dfdfdf"/>
    </radialGradient>
    <clipPath id="clip-path">
      <rect id="Rectangle_3381" data-name="Rectangle 3381" width="32.173" height="23.423" fill="#3a4750"/>
    </clipPath>
  </defs>
  <g id="Group_91505" data-name="Group 91505" transform="translate(-139 -3782)">
    <g id="Ellipse_207" data-name="Ellipse 207" transform="translate(139 3782)" stroke="rgba(26,29,32,0.07)" stroke-width="1.5" fill="url(#radial-gradient)">
      <circle cx="31" cy="31" r="31" stroke="none"/>
      <circle cx="31" cy="31" r="30.25" fill="none"/>
    </g>
    <g id="Group_8796" data-name="Group 8796" transform="translate(154.176 3801.289)">
      <g id="Group_8795" data-name="Group 8795" clip-path="url(#clip-path)">
        <path id="Path_433" data-name="Path 433" d="M272.375,12.86c-.1.622-.171,1.248-.29,1.866a15.9,15.9,0,0,1-4.4,8.331,1.151,1.151,0,1,1-1.625-1.628,13.418,13.418,0,0,0,3.61-6.491,13.574,13.574,0,0,0-3.365-12.681c-.088-.1-.183-.189-.271-.286a1.143,1.143,0,0,1,.011-1.64,1.142,1.142,0,0,1,1.64.035,15.656,15.656,0,0,1,2.47,3.2,15.841,15.841,0,0,1,2.153,6.762,1.34,1.34,0,0,0,.064.237Z" transform="translate(-240.203 -0.001)" fill="#3a4750"/>
        <path id="Path_434" data-name="Path 434" d="M0,10.925A15.639,15.639,0,0,1,4.658.4,1.148,1.148,0,0,1,6.324.333,1.134,1.134,0,0,1,6.315,2,13.463,13.463,0,0,0,2.542,9.223,13.573,13.573,0,0,0,6,21.1c.1.116.215.225.32.339a1.153,1.153,0,1,1-1.657,1.6,15.866,15.866,0,0,1-3.131-4.472A16.971,16.971,0,0,1,0,10.925" transform="translate(0 -0.006)" fill="#3a4750"/>
        <path id="Path_435" data-name="Path 435" d="M47.848,42.282a11.44,11.44,0,0,1,3.3-8.045,1.144,1.144,0,0,1,1.74-.02,1.162,1.162,0,0,1-.1,1.644,9.324,9.324,0,0,0-1.87,2.781,9.189,9.189,0,0,0,1.75,9.964,1.907,1.907,0,0,1,.479.81,1.064,1.064,0,0,1-.609,1.216,1.122,1.122,0,0,1-1.348-.244A11.39,11.39,0,0,1,48.3,45.467a10.921,10.921,0,0,1-.449-3.186" transform="translate(-43.257 -30.58)" fill="#3a4750"/>
        <path id="Path_436" data-name="Path 436" d="M237.256,41.951a11.749,11.749,0,0,1-3.219,8.287,1.181,1.181,0,0,1-1.767.192,1.242,1.242,0,0,1,.1-1.81,8.844,8.844,0,0,0,2.554-6.6,8.949,8.949,0,0,0-2.562-6.1,1.205,1.205,0,0,1-.2-1.67,1.139,1.139,0,0,1,1.738-.059,11.222,11.222,0,0,1,3.11,5.863c.141.736.192,1.49.242,1.9" transform="translate(-209.661 -30.57)" fill="#3a4750"/>
        <path id="Path_437" data-name="Path 437" d="M95.724,72.894a6.847,6.847,0,0,1,1.928-4.762A1.156,1.156,0,1,1,99.33,69.71a4.571,4.571,0,0,0-.008,6.379,1.158,1.158,0,1,1-1.688,1.569,6.856,6.856,0,0,1-1.91-4.764" transform="translate(-86.54 -61.193)" fill="#3a4750"/>
        <path id="Path_438" data-name="Path 438" d="M202,72.9a6.862,6.862,0,0,1-1.918,4.765,1.157,1.157,0,1,1-1.673-1.582,4.58,4.58,0,0,0,0-6.354,1.157,1.157,0,1,1,1.666-1.59A6.859,6.859,0,0,1,202,72.9" transform="translate(-179.013 -61.197)" fill="#3a4750"/>
        <path id="Path_439" data-name="Path 439" d="M146.034,98.141a2.3,2.3,0,1,1-2.3,2.29,2.28,2.28,0,0,1,2.3-2.29" transform="translate(-129.943 -88.725)" fill="#3a4750"/>
      </g>
    </g>
  </g>
</svg>
