<svg id="footer-logo" xmlns="http://www.w3.org/2000/svg" width="212.5" height="56.751" viewBox="0 0 212.5 56.751">
  <path id="Path_110" data-name="Path 110" d="M32.09,56.376l-.053-33.041a.394.394,0,0,1,.168-.322L64.6.71A.39.39,0,0,0,64.374,0H.392A.388.388,0,0,0,.233.744L22.184,10.5a.39.39,0,0,1,.066.674l-9.312,6.593a.39.39,0,0,0-.125.488l18.544,38.29a.39.39,0,0,0,.732-.17Z" transform="translate(0 0)"/>
  <path id="Path_111" data-name="Path 111" d="M19.363,10.528l-3.58,2.5a.242.242,0,0,1-.282,0L1.146,2.53a.244.244,0,0,1,.244-.418l17.931,7.995a.244.244,0,0,1,.042.422Z" transform="translate(0.44 0.876)"/>
  <path id="Path_112" data-name="Path 112" d="M23.656,50.565v-30.6a.242.242,0,0,1,.03-.107.246.246,0,0,1,.074-.083L37.937,9.86a.24.24,0,0,1,.246-.019l5.745,2.785a.244.244,0,0,1,.108.333L24.114,50.678a.242.242,0,0,1-.458-.114Z" transform="translate(9.907 4.111)"/>
  <path id="Path_113" data-name="Path 113" d="M64.671,8.327H55V.456H83.376V8.327H73.661V32.868H64.671Z" transform="translate(23.033 0.191)"/>
  <path id="Path_114" data-name="Path 114" d="M76.051,16.941v-.092C76.051,7.544,83.551,0,93.549,0s17.407,7.452,17.407,16.757v.092c0,9.305-7.5,16.849-17.5,16.849S76.051,26.254,76.051,16.941Zm25.691,0v-.092c0-4.722-3.323-8.748-8.285-8.748s-8.239,3.98-8.239,8.656v.092c0,4.676,3.38,8.748,8.331,8.748,4.9,0,8.18-3.98,8.18-8.656Z" transform="translate(31.848)"/>
  <path id="Path_115" data-name="Path 115" d="M103.9.456h15.321c4.954,0,8.379,1.3,10.554,3.472a10.117,10.117,0,0,1,2.872,7.546v.092a10.268,10.268,0,0,1-6.667,10l7.729,11.3H123.39l-6.526-9.814h-3.981V32.86H103.9Zm14.952,15.553c3.009,0,4.814-1.48,4.814-3.835v-.095c0-2.592-1.9-3.888-4.856-3.888h-5.923v7.822Z" transform="translate(43.512 0.191)"/>
  <path id="Path_116" data-name="Path 116" d="M127.789.456h8.981V13.6L147.971.456h10.6L146.3,14.344,158.985,32.86H148.248l-8.181-12.035-3.284,3.61V32.87H127.8Z" transform="translate(53.515 0.191)"/>
  <path id="Path_117" data-name="Path 117" d="M55.059,30.468h3.152l3.495,5.624L65.2,30.468h3.155V43.761H65.448V35.082l-3.743,5.68h-.077l-3.7-5.624v8.623H55.059Z" transform="translate(23.057 12.759)"/>
  <path id="Path_118" data-name="Path 118" d="M73.258,37.221v-.038a7.068,7.068,0,0,1,14.129-.038v.038a7.068,7.068,0,0,1-14.129.038Zm11.072,0v-.038A4.04,4.04,0,0,0,80.3,33.005a3.972,3.972,0,0,0-3.985,4.139v.038a4.038,4.038,0,0,0,4.024,4.18A3.978,3.978,0,0,0,84.33,37.221Z" transform="translate(30.679 12.692)"/>
  <path id="Path_119" data-name="Path 119" d="M95.014,33.178H90.967v-2.71h11.015v2.71H97.938V43.761H95.014Z" transform="translate(38.095 12.759)"/>
  <path id="Path_120" data-name="Path 120" d="M106.486,37.221v-.038a7.068,7.068,0,0,1,14.13-.038v.038a7.068,7.068,0,0,1-14.13.038Zm11.072,0v-.038a4.039,4.039,0,0,0-4.026-4.177,3.976,3.976,0,0,0-3.988,4.139v.038a4.04,4.04,0,0,0,4.026,4.18A3.976,3.976,0,0,0,117.558,37.221Z" transform="translate(44.594 12.692)"/>
  <path id="Path_121" data-name="Path 121" d="M125.273,30.468h6.089a5.3,5.3,0,0,1,3.876,1.35,4.181,4.181,0,0,1,1.138,3.037v.038a4.129,4.129,0,0,1-2.849,4.121l3.248,4.747h-3.418l-2.847-4.254h-2.3v4.254h-2.924Zm5.881,6.457c1.423,0,2.239-.767,2.239-1.881v-.038c0-1.253-.871-1.9-2.3-1.9h-2.9v3.817Z" transform="translate(52.461 12.759)"/>
  <path id="Path_122" data-name="Path 122" d="M142.3,41.882l1.728-2.071A6.1,6.1,0,0,0,148,41.424c1.2,0,1.917-.473,1.917-1.252v-.036c0-.741-.454-1.12-2.679-1.69-2.676-.685-4.405-1.424-4.405-4.065v-.038c0-2.411,1.938-4.006,4.654-4.006a7.694,7.694,0,0,1,4.939,1.69l-1.534,2.2a6.228,6.228,0,0,0-3.456-1.311c-1.119,0-1.708.511-1.708,1.158v.038c0,.874.57,1.158,2.866,1.748,2.7.7,4.218,1.669,4.218,3.988v.028c0,2.641-2.015,4.124-4.883,4.124A8.46,8.46,0,0,1,142.3,41.882Z" transform="translate(59.594 12.704)"/>
</svg>
