<svg xmlns="http://www.w3.org/2000/svg" xmlns:xlink="http://www.w3.org/1999/xlink" width="62" height="62" viewBox="0 0 62 62">
  <defs>
    <radialGradient id="radial-gradient" cx="0.5" cy="0.5" r="0.5" gradientUnits="objectBoundingBox">
      <stop offset="0" stop-color="#fbfbfb"/>
      <stop offset="1" stop-color="#dfdfdf"/>
    </radialGradient>
  </defs>
  <g id="Group_91504" data-name="Group 91504" transform="translate(-139 -3702)">
    <g id="Ellipse_206" data-name="Ellipse 206" transform="translate(139 3702)" stroke="rgba(26,29,32,0.07)" stroke-width="1.5" fill="url(#radial-gradient)">
      <circle cx="31" cy="31" r="31" stroke="none"/>
      <circle cx="31" cy="31" r="30.25" fill="none"/>
    </g>
    <g id="Group_8794" data-name="Group 8794" transform="translate(6.806 -51.436)">
      <path id="Path_430" data-name="Path 430" d="M58.7,13.742c-.09-.088-.243-.165-.261-.267-.1-.546-.454-.671-.95-.712-.729-.06-1.455-.177-2.178-.3a1.194,1.194,0,0,1-1.117-1.31c.16-3.235.326-6.471.518-9.7.056-.95.451-1.308,1.4-1.425A3.99,3.99,0,0,1,56.6,0Q65.8,0,74.993,0a11.623,11.623,0,0,1,4.1.651,4.954,4.954,0,0,1,1.79,1.128q1.562,1.549,3.162,3.059a5.068,5.068,0,0,0,1.035.74c.931.508,1.879.986,2.826,1.463a2.239,2.239,0,0,1,1.3,1.979c.058.852.13,1.7.187,2.554a.7.7,0,0,1-.581.853c-.684.19-1.373.36-2.062.529a1.093,1.093,0,0,1-.284,0,9.013,9.013,0,0,0-.142-1.271,2.923,2.923,0,0,0-5.749.64c-.017.415,0,.832-.005,1.247a.708.708,0,0,1-.106.239c-.084-.052-.168-.1-.25-.158-.015-.01-.02-.039-.024-.06-.086-.556-.424-.639-.946-.636-4.729.024-9.458.014-14.186.014h-.383c0-.25.014-.467,0-.683a2.935,2.935,0,0,0-5.867.145c-.011.4,0,.807,0,1.211l-.1.091m21.3-7.952v0c.941,0,1.881.006,2.822-.007a1.234,1.234,0,0,0,.392-.153,1.292,1.292,0,0,0-.185-.382c-.9-.891-1.824-1.764-2.724-2.657a3.661,3.661,0,0,0-1.543-.96c-.658-.193-1.333-.334-2.006-.469-.347-.069-.432.024-.432.379,0,1.094-.006,2.188,0,3.281,0,.7.284.969.985.97q1.345,0,2.691,0m7.167,2.391c.413.514.762.963,1.128,1.4.176.209.536.193.53,0a6.916,6.916,0,0,0-.15-1.158.391.391,0,0,0-.286-.229c-.376-.028-.756-.011-1.221-.011" transform="translate(91.662 3778)" fill="#3a4750"/>
      <path id="Path_431" data-name="Path 431" d="M303.172,91.982a2.421,2.421,0,0,1-.085,4.841,2.421,2.421,0,1,1,.085-4.841m-.032,3.649a1.234,1.234,0,1,0-1.25-1.214,1.246,1.246,0,0,0,1.25,1.214" transform="translate(-127.968 3696.048)" fill="#3a4750"/>
      <path id="Path_432" data-name="Path 432" d="M103.662,91.972a2.421,2.421,0,1,1-2.427,2.411,2.408,2.408,0,0,1,2.427-2.411m-.019,3.65a1.234,1.234,0,1,0-1.23-1.27,1.247,1.247,0,0,0,1.23,1.27" transform="translate(49.751 3696.058)" fill="#3a4750"/>
    </g>
  </g>
</svg>
